<svg aria-hidden="true" style="width:0;height:0;position:absolute;overflow:hidden" xmlns="http://www.w3.org/2000/svg"><defs><symbol id="icon-basket" viewBox="0 0 32 32"><path fill="none" stroke="#069" style="stroke:var(--color1,#069)" stroke-linejoin="round" stroke-width="2.667" d="M1.778 12.653h28.444l-2.994 17.569H5.52L1.778 12.653zm24.261-.836c0-5.544-4.494-10.039-10.039-10.039S5.961 6.273 5.961 11.817"/><path fill="none" stroke="#069" style="stroke:var(--color1,#069)" stroke-linejoin="round" stroke-linecap="round" stroke-width="2.667" d="M10.98 18.509h10.876M10.98 24.366h10.876"/></symbol><symbol id="icon-dandruff" viewBox="0 0 32 32"><path fill="none" stroke="#fff" style="stroke:var(--color2,#fff)" stroke-width="3.31" d="M24.828 13.241c0 6.399-5.187 11.586-11.586 11.586S1.656 19.64 1.656 13.241 6.843 1.655 13.242 1.655s11.586 5.187 11.586 11.586z"/><path fill="#fff" style="fill:var(--color2,#fff)" d="m22.916 21.032 7.022 7.022a1.656 1.656 0 0 1-2.341 2.341l-7.022-7.022a1.656 1.656 0 0 1 2.341-2.341z"/></symbol><symbol id="icon-category" viewBox="0 0 42 32"><path fill="#fff" style="fill:var(--color2,#fff)" d="M0 0h40.903v5.053H0zm0 13.474h40.903v5.053H0zm0 13.473h40.903V32H0z"/></symbol><symbol id="icon-arrow_left" viewBox="0 0 20 20"><path d="M13.891 17.418c.268.272.268.709 0 .979s-.701.271-.969 0l-7.83-7.908a.697.697 0 0 1 0-.979l7.83-7.908c.268-.27.701-.27.969 0s.268.709 0 .979L6.75 10l7.141 7.418z"/></symbol><symbol id="icon-arrow_right" viewBox="0 0 20 20"><path d="M13.25 10 6.109 2.58a.697.697 0 0 1 0-.979.68.68 0 0 1 .969 0l7.83 7.908a.697.697 0 0 1 0 .979l-7.83 7.908c-.268.271-.701.27-.969 0s-.268-.707 0-.979L13.25 10z"/></symbol><symbol id="icon-arrow_down" viewBox="0 0 45 32"><path fill="none" stroke="#fff" style="stroke:var(--color2,#fff)" stroke-linejoin="round" stroke-linecap="round" stroke-width="6.4" d="M41.6 3.2 22.4 28.8 3.2 3.2"/></symbol><symbol id="icon-arrow_up" viewBox="0 0 45 32"><path fill="none" stroke="#fff" style="stroke:var(--color2,#fff)" stroke-linejoin="round" stroke-linecap="round" stroke-width="6.4" d="M3.2 28.8 22.4 3.2l19.2 25.6"/></symbol><symbol id="icon-close" viewBox="0 0 32 32"><path fill="none" stroke="#fff" style="stroke:var(--color2,#fff)" stroke-linecap="round" stroke-width="3.2" d="M29.576 2.424 2.424 29.576m27.152 0L2.424 2.424"/></symbol><symbol id="icon-menu" viewBox="0 0 46 32"><path fill="none" stroke="#069" style="stroke:var(--color1,#069)" stroke-linecap="round" stroke-width="3.556" d="M44.444 1.778H7.111M44.444 16H10.666m33.778 14.222H1.777"/></symbol><symbol id="icon-telegram" viewBox="0 0 32 32"><path d="m31.88 5.053-4.813 22.733c-.333 1.613-1.307 2-2.667 1.253l-7.333-5.427-3.547 3.427c-.4.4-.733.747-1.467.747-.96 0-.8-.36-1.12-1.267L8.4 18.266l-7.267-2.267c-1.573-.467-1.587-1.547.347-2.333L29.827 2.733c1.293-.573 2.533.32 2.053 2.32z"/></symbol><symbol id="icon-viber" viewBox="0 0 32 32"><path d="M15.197.003C12.63.038 7.108.459 4.018 3.29 1.725 5.57.923 8.931.83 13.094.75 17.241.657 25.027 8.163 27.149v3.227s-.051 1.293.803 1.56c1.053.333 1.653-.665 2.653-1.732l1.867-2.107c5.133.427 9.067-.559 9.52-.705 1.04-.333 6.908-1.081 7.868-8.869.987-8.041-.48-13.108-3.12-15.401l-.013-.003c-.8-.733-4-3.067-11.16-3.093 0 0-.528-.033-1.384-.021zm.09 2.262c.727-.004 1.173.027 1.173.027 6.053.013 8.948 1.84 9.628 2.453 2.227 1.905 3.371 6.475 2.533 13.189-.8 6.507-5.56 6.92-6.44 7.2-.373.12-3.84.973-8.203.693 0 0-3.252 3.921-4.265 4.935-.16.173-.347.227-.467.2-.173-.04-.227-.253-.213-.547l.027-5.359c-6.361-1.76-5.988-8.403-5.921-11.869.08-3.467.733-6.309 2.667-8.229 2.609-2.36 7.3-2.68 9.481-2.693zm.48 3.467h-.001a.4.4 0 0 0 .001.799l.143-.001c2.034 0 3.88.809 5.232 2.123l-.002-.002c1.453 1.413 2.161 3.307 2.188 5.787a.4.4 0 0 0 .4.4v-.012a.4.4 0 0 0 .4-.4 8.575 8.575 0 0 0-2.415-6.349l.002.002c-1.587-1.547-3.589-2.347-5.948-2.347zm-5.272.92a1.263 1.263 0 0 0-.826.163l.006-.003h-.016c-.547.32-1.051.72-1.531 1.253-.36.427-.561.852-.615 1.265a1.634 1.634 0 0 0 .07.733l-.003-.012.027.013a18.197 18.197 0 0 0 1.646 3.549l-.046-.082a20.684 20.684 0 0 0 3.101 4.237l-.008-.009.04.053.053.04.08.08a20.864 20.864 0 0 0 4.136 3.053l.104.054c1.76.96 2.829 1.413 3.469 1.6v.013c.187.053.357.08.531.08a2.447 2.447 0 0 0 1.471-.631l-.002.002a6.03 6.03 0 0 0 1.24-1.531v-.013c.307-.573.2-1.121-.24-1.495a18.139 18.139 0 0 0-2.781-2.007l-.085-.046c-.68-.373-1.373-.147-1.653.227l-.6.759c-.307.373-.867.32-.867.32l-.016.013c-4.16-1.067-5.267-5.279-5.267-5.279s-.053-.573.333-.867l.747-.6c.36-.293.613-.987.227-1.667a18.073 18.073 0 0 0-2.071-2.887l.017.02a1.127 1.127 0 0 0-.665-.399l-.007-.001zm5.964 1.187a.401.401 0 0 0 .001.8h.001a5.027 5.027 0 0 1 3.532 1.532l.001.001a4.646 4.646 0 0 1 1.199 3.44l.001-.014c.001.22.18.399.4.399l.013.016a.4.4 0 0 0 .4-.4v-.001c.04-1.587-.453-2.92-1.427-3.987s-2.333-1.667-4.067-1.787l-.028-.001-.029.001h.001zm.653 2.158H17.1a.407.407 0 0 0-.012.815h.001c1.32.067 1.96.733 2.04 2.107a.4.4 0 0 0 .4.387h.013a.4.4 0 0 0 .388-.4l-.001-.028v.001c-.093-1.787-1.067-2.788-2.8-2.881h-.016z"/></symbol><symbol id="icon-whatsapp" viewBox="0 0 32 32"><path d="M27.281 4.65C24.287 1.65 20.306 0 16.062 0 7.324 0 .212 7.112.212 15.856c0 2.794.731 5.525 2.119 7.925L.081 32l8.406-2.206a15.858 15.858 0 0 0 7.575 1.931h.006c8.738 0 15.856-7.113 15.856-15.856 0-4.238-1.65-8.219-4.644-11.219zm-11.212 24.4a13.17 13.17 0 0 1-6.713-1.837l-.481-.288-4.987 1.306 1.331-4.863-.313-.5a13.086 13.086 0 0 1-2.019-7.012c0-7.269 5.912-13.181 13.188-13.181 3.519 0 6.831 1.375 9.319 3.862a13.108 13.108 0 0 1 3.856 9.325c-.006 7.275-5.919 13.188-13.181 13.188zm7.225-9.875c-.394-.2-2.344-1.156-2.706-1.288s-.625-.2-.894.2c-.262.394-1.025 1.288-1.256 1.556-.231.262-.462.3-.856.1s-1.675-.619-3.188-1.969c-1.175-1.05-1.975-2.35-2.206-2.744s-.025-.613.175-.806c.181-.175.394-.463.594-.694s.262-.394.394-.662c.131-.262.069-.494-.031-.694s-.894-2.15-1.219-2.944c-.319-.775-.65-.669-.894-.681-.231-.012-.494-.012-.756-.012s-.694.1-1.056.494c-.363.394-1.387 1.356-1.387 3.306s1.419 3.831 1.619 4.1c.2.262 2.794 4.269 6.769 5.981.944.406 1.681.65 2.256.837.95.3 1.813.256 2.494.156.762-.113 2.344-.956 2.675-1.881s.331-1.719.231-1.881c-.094-.175-.356-.275-.756-.475z"/></symbol></defs></svg>